<?xml version="1.0" encoding="UTF-8" standalone="no"?>
<!-- Created with Inkscape (http://www.inkscape.org/) -->

<svg
   xmlns:dc="http://purl.org/dc/elements/1.1/"
   xmlns:cc="http://creativecommons.org/ns#"
   xmlns:rdf="http://www.w3.org/1999/02/22-rdf-syntax-ns#"
   xmlns:svg="http://www.w3.org/2000/svg"
   xmlns="http://www.w3.org/2000/svg"
   xmlns:sodipodi="http://sodipodi.sourceforge.net/DTD/sodipodi-0.dtd"
   xmlns:inkscape="http://www.inkscape.org/namespaces/inkscape"
   width="210mm"
   height="297mm"
   viewBox="0 0 744.09448819 1052.3622047"
   id="svg2"
   version="1.1"
   inkscape:version="0.91 r13725"
   inkscape:export-filename="C:\Users\Ivan\Desktop\blocks.png"
   inkscape:export-xdpi="90"
   inkscape:export-ydpi="90"
   sodipodi:docname="blocks.svg">
  <defs
     id="defs4" />
  <sodipodi:namedview
     id="base"
     pagecolor="#ffffff"
     bordercolor="#666666"
     borderopacity="1.0"
     inkscape:pageopacity="0.0"
     inkscape:pageshadow="2"
     inkscape:zoom="4"
     inkscape:cx="106.19464"
     inkscape:cy="986.36395"
     inkscape:document-units="px"
     inkscape:current-layer="layer1"
     showgrid="true"
     inkscape:snap-bbox="true"
     inkscape:window-width="1600"
     inkscape:window-height="837"
     inkscape:window-x="-8"
     inkscape:window-y="-8"
     inkscape:window-maximized="1"
     showguides="false">
    <inkscape:grid
       type="xygrid"
       id="grid3340" />
  </sodipodi:namedview>
  <metadata
     id="metadata7">
    <rdf:RDF>
      <cc:Work
         rdf:about="">
        <dc:format>image/svg+xml</dc:format>
        <dc:type
           rdf:resource="http://purl.org/dc/dcmitype/StillImage" />
        <dc:title />
      </cc:Work>
    </rdf:RDF>
  </metadata>
  <g
     inkscape:label="Layer 1"
     inkscape:groupmode="layer"
     id="layer1">
    <rect
       style="fill:none;fill-rule:evenodd;stroke:#000000;stroke-width:0.59928972px;stroke-linecap:butt;stroke-linejoin:miter;stroke-opacity:1"
       id="rect3342"
       width="23.971588"
       height="23.971588"
       x="34.192921"
       y="34.127464"
       rx="1.6633644e-017"
       inkscape:export-xdpi="90"
       inkscape:export-ydpi="90" />
    <rect
       style="fill:none;fill-rule:evenodd;stroke:#000000;stroke-width:0.59928972px;stroke-linecap:butt;stroke-linejoin:miter;stroke-opacity:1"
       id="rect3344"
       width="17.978691"
       height="17.978691"
       x="37.189362"
       y="37.123905"
       rx="1.6633644e-017"
       inkscape:export-xdpi="90"
       inkscape:export-ydpi="90" />
    <path
       style="fill:none;fill-rule:evenodd;stroke:#000000;stroke-width:0.59928972px;stroke-linecap:butt;stroke-linejoin:miter;stroke-opacity:1"
       d="m 34.192908,34.127437 2.996453,2.996453"
       id="path3352"
       inkscape:connector-curvature="0"
       inkscape:export-xdpi="90"
       inkscape:export-ydpi="90" />
    <path
       style="fill:none;fill-rule:evenodd;stroke:#000000;stroke-width:0.59928972px;stroke-linecap:butt;stroke-linejoin:miter;stroke-opacity:1"
       d="m 55.168056,37.12389 2.996441,-2.996453"
       id="path3354"
       inkscape:connector-curvature="0"
       inkscape:export-xdpi="90"
       inkscape:export-ydpi="90" />
    <path
       style="fill:none;fill-rule:evenodd;stroke:#000000;stroke-width:0.59928972px;stroke-linecap:butt;stroke-linejoin:miter;stroke-opacity:1"
       d="m 55.168056,55.102573 2.996441,2.996453"
       id="path3356"
       inkscape:connector-curvature="0"
       inkscape:export-xdpi="90"
       inkscape:export-ydpi="90" />
    <path
       style="fill:none;fill-rule:evenodd;stroke:#000000;stroke-width:0.59928972px;stroke-linecap:butt;stroke-linejoin:miter;stroke-opacity:1"
       d="m 34.192908,58.099026 2.996453,-2.996453"
       id="path3358"
       inkscape:connector-curvature="0"
       inkscape:export-xdpi="90"
       inkscape:export-ydpi="90" />
    <rect
       style="fill:none;fill-rule:evenodd;stroke:#000000;stroke-width:0.59928972px;stroke-linecap:butt;stroke-linejoin:miter;stroke-opacity:1"
       id="rect3342-7"
       width="23.971588"
       height="23.971588"
       x="58.164516"
       y="34.127464"
       rx="1.6633644e-017"
       inkscape:export-xdpi="90"
       inkscape:export-ydpi="90" />
    <rect
       style="fill:none;fill-rule:evenodd;stroke:#000000;stroke-width:0.59928972px;stroke-linecap:butt;stroke-linejoin:miter;stroke-opacity:1"
       id="rect3344-5"
       width="17.978691"
       height="17.978691"
       x="61.160954"
       y="37.123905"
       rx="1.6633644e-017"
       inkscape:export-xdpi="90"
       inkscape:export-ydpi="90" />
    <path
       style="fill:none;fill-rule:evenodd;stroke:#000000;stroke-width:0.59928972px;stroke-linecap:butt;stroke-linejoin:miter;stroke-opacity:1"
       d="M 58.164497,34.127437 61.16095,37.12389"
       id="path3352-7"
       inkscape:connector-curvature="0"
       inkscape:export-xdpi="90"
       inkscape:export-ydpi="90" />
    <path
       style="fill:none;fill-rule:evenodd;stroke:#000000;stroke-width:0.59928972px;stroke-linecap:butt;stroke-linejoin:miter;stroke-opacity:1"
       d="m 79.139645,37.12389 2.996441,-2.996453"
       id="path3354-8"
       inkscape:connector-curvature="0"
       inkscape:export-xdpi="90"
       inkscape:export-ydpi="90" />
    <path
       style="fill:none;fill-rule:evenodd;stroke:#000000;stroke-width:0.59928972px;stroke-linecap:butt;stroke-linejoin:miter;stroke-opacity:1"
       d="m 79.139645,55.102573 2.996441,2.996453"
       id="path3356-0"
       inkscape:connector-curvature="0"
       inkscape:export-xdpi="90"
       inkscape:export-ydpi="90" />
    <path
       style="fill:none;fill-rule:evenodd;stroke:#000000;stroke-width:0.59928972px;stroke-linecap:butt;stroke-linejoin:miter;stroke-opacity:1"
       d="M 58.164497,58.099026 61.16095,55.102573"
       id="path3358-8"
       inkscape:connector-curvature="0"
       inkscape:export-xdpi="90"
       inkscape:export-ydpi="90" />
    <rect
       style="fill:none;fill-rule:evenodd;stroke:#000000;stroke-width:0.59928972px;stroke-linecap:butt;stroke-linejoin:miter;stroke-opacity:1"
       id="rect3342-8"
       width="23.971588"
       height="23.971588"
       x="82.136108"
       y="34.127464"
       rx="1.6633644e-017"
       inkscape:export-xdpi="90"
       inkscape:export-ydpi="90" />
    <rect
       style="fill:none;fill-rule:evenodd;stroke:#000000;stroke-width:0.59928972px;stroke-linecap:butt;stroke-linejoin:miter;stroke-opacity:1"
       id="rect3344-0"
       width="17.978691"
       height="17.978691"
       x="85.132545"
       y="37.123905"
       rx="1.6633644e-017"
       inkscape:export-xdpi="90"
       inkscape:export-ydpi="90" />
    <path
       style="fill:none;fill-rule:evenodd;stroke:#000000;stroke-width:0.59928972px;stroke-linecap:butt;stroke-linejoin:miter;stroke-opacity:1"
       d="m 82.136086,34.127437 2.996453,2.996453"
       id="path3352-1"
       inkscape:connector-curvature="0"
       inkscape:export-xdpi="90"
       inkscape:export-ydpi="90" />
    <path
       style="fill:none;fill-rule:evenodd;stroke:#000000;stroke-width:0.59928972px;stroke-linecap:butt;stroke-linejoin:miter;stroke-opacity:1"
       d="m 103.11123,37.12389 2.99644,-2.996453"
       id="path3354-4"
       inkscape:connector-curvature="0"
       inkscape:export-xdpi="90"
       inkscape:export-ydpi="90" />
    <path
       style="fill:none;fill-rule:evenodd;stroke:#000000;stroke-width:0.59928972px;stroke-linecap:butt;stroke-linejoin:miter;stroke-opacity:1"
       d="m 103.11123,55.102573 2.99644,2.996453"
       id="path3356-5"
       inkscape:connector-curvature="0"
       inkscape:export-xdpi="90"
       inkscape:export-ydpi="90" />
    <path
       style="fill:none;fill-rule:evenodd;stroke:#000000;stroke-width:0.59928972px;stroke-linecap:butt;stroke-linejoin:miter;stroke-opacity:1"
       d="m 82.136086,58.099026 2.996453,-2.996453"
       id="path3358-0"
       inkscape:connector-curvature="0"
       inkscape:export-xdpi="90"
       inkscape:export-ydpi="90" />
    <rect
       style="fill:none;fill-rule:evenodd;stroke:#000000;stroke-width:0.59928972px;stroke-linecap:butt;stroke-linejoin:miter;stroke-opacity:1"
       id="rect3342-7-8"
       width="23.971588"
       height="23.971588"
       x="106.1077"
       y="34.127464"
       rx="1.6633644e-017"
       inkscape:export-xdpi="90"
       inkscape:export-ydpi="90" />
    <rect
       style="fill:none;fill-rule:evenodd;stroke:#000000;stroke-width:0.59928972px;stroke-linecap:butt;stroke-linejoin:miter;stroke-opacity:1"
       id="rect3344-5-7"
       width="17.978691"
       height="17.978691"
       x="109.10414"
       y="37.123905"
       rx="1.6633644e-017"
       inkscape:export-xdpi="90"
       inkscape:export-ydpi="90" />
    <path
       style="fill:none;fill-rule:evenodd;stroke:#000000;stroke-width:0.59928972px;stroke-linecap:butt;stroke-linejoin:miter;stroke-opacity:1"
       d="m 106.10767,34.127437 2.99646,2.996453"
       id="path3352-7-7"
       inkscape:connector-curvature="0"
       inkscape:export-xdpi="90"
       inkscape:export-ydpi="90" />
    <path
       style="fill:none;fill-rule:evenodd;stroke:#000000;stroke-width:0.59928972px;stroke-linecap:butt;stroke-linejoin:miter;stroke-opacity:1"
       d="m 127.08283,37.12389 2.99643,-2.996453"
       id="path3354-8-6"
       inkscape:connector-curvature="0"
       inkscape:export-xdpi="90"
       inkscape:export-ydpi="90" />
    <path
       style="fill:none;fill-rule:evenodd;stroke:#000000;stroke-width:0.59928972px;stroke-linecap:butt;stroke-linejoin:miter;stroke-opacity:1"
       d="m 127.08283,55.102573 2.99643,2.996453"
       id="path3356-0-5"
       inkscape:connector-curvature="0"
       inkscape:export-xdpi="90"
       inkscape:export-ydpi="90" />
    <path
       style="fill:none;fill-rule:evenodd;stroke:#000000;stroke-width:0.59928972px;stroke-linecap:butt;stroke-linejoin:miter;stroke-opacity:1"
       d="m 106.10767,58.099026 2.99646,-2.996453"
       id="path3358-8-2"
       inkscape:connector-curvature="0"
       inkscape:export-xdpi="90"
       inkscape:export-ydpi="90" />
    <rect
       style="fill:none;fill-rule:evenodd;stroke:#000000;stroke-width:0.59928972px;stroke-linecap:butt;stroke-linejoin:miter;stroke-opacity:1"
       id="rect3342-75"
       width="23.971588"
       height="23.971588"
       x="130.0793"
       y="34.127464"
       rx="1.6633644e-017"
       inkscape:export-xdpi="90"
       inkscape:export-ydpi="90" />
    <rect
       style="fill:none;fill-rule:evenodd;stroke:#000000;stroke-width:0.59928972px;stroke-linecap:butt;stroke-linejoin:miter;stroke-opacity:1"
       id="rect3344-6"
       width="17.978691"
       height="17.978691"
       x="133.07573"
       y="37.123905"
       rx="1.6633644e-017"
       inkscape:export-xdpi="90"
       inkscape:export-ydpi="90" />
    <path
       style="fill:none;fill-rule:evenodd;stroke:#000000;stroke-width:0.59928972px;stroke-linecap:butt;stroke-linejoin:miter;stroke-opacity:1"
       d="m 130.07926,34.127437 2.99645,2.996453"
       id="path3352-3"
       inkscape:connector-curvature="0"
       inkscape:export-xdpi="90"
       inkscape:export-ydpi="90" />
    <path
       style="fill:none;fill-rule:evenodd;stroke:#000000;stroke-width:0.59928972px;stroke-linecap:butt;stroke-linejoin:miter;stroke-opacity:1"
       d="m 151.05441,37.12389 2.99644,-2.996453"
       id="path3354-0"
       inkscape:connector-curvature="0"
       inkscape:export-xdpi="90"
       inkscape:export-ydpi="90" />
    <path
       style="fill:none;fill-rule:evenodd;stroke:#000000;stroke-width:0.59928972px;stroke-linecap:butt;stroke-linejoin:miter;stroke-opacity:1"
       d="m 151.05441,55.102573 2.99644,2.996453"
       id="path3356-3"
       inkscape:connector-curvature="0"
       inkscape:export-xdpi="90"
       inkscape:export-ydpi="90" />
    <path
       style="fill:none;fill-rule:evenodd;stroke:#000000;stroke-width:0.59928972px;stroke-linecap:butt;stroke-linejoin:miter;stroke-opacity:1"
       d="m 130.07926,58.099026 2.99645,-2.996453"
       id="path3358-5"
       inkscape:connector-curvature="0"
       inkscape:export-xdpi="90"
       inkscape:export-ydpi="90" />
    <rect
       style="fill:none;fill-rule:evenodd;stroke:#000000;stroke-width:0.59928972px;stroke-linecap:butt;stroke-linejoin:miter;stroke-opacity:1"
       id="rect3342-7-2"
       width="23.971588"
       height="23.971588"
       x="154.05086"
       y="34.127464"
       rx="1.6633644e-017"
       inkscape:export-xdpi="90"
       inkscape:export-ydpi="90" />
    <rect
       style="fill:none;fill-rule:evenodd;stroke:#000000;stroke-width:0.59928972px;stroke-linecap:butt;stroke-linejoin:miter;stroke-opacity:1"
       id="rect3344-5-1"
       width="17.978691"
       height="17.978691"
       x="157.04733"
       y="37.123905"
       rx="1.6633644e-017"
       inkscape:export-xdpi="90"
       inkscape:export-ydpi="90" />
    <path
       style="fill:none;fill-rule:evenodd;stroke:#000000;stroke-width:0.59928972px;stroke-linecap:butt;stroke-linejoin:miter;stroke-opacity:1"
       d="m 154.05085,34.127437 2.99645,2.996453"
       id="path3352-7-75"
       inkscape:connector-curvature="0"
       inkscape:export-xdpi="90"
       inkscape:export-ydpi="90" />
    <path
       style="fill:none;fill-rule:evenodd;stroke:#000000;stroke-width:0.59928972px;stroke-linecap:butt;stroke-linejoin:miter;stroke-opacity:1"
       d="m 175.02599,37.12389 2.99645,-2.996453"
       id="path3354-8-1"
       inkscape:connector-curvature="0"
       inkscape:export-xdpi="90"
       inkscape:export-ydpi="90" />
    <path
       style="fill:none;fill-rule:evenodd;stroke:#000000;stroke-width:0.59928972px;stroke-linecap:butt;stroke-linejoin:miter;stroke-opacity:1"
       d="m 175.02599,55.102573 2.99645,2.996453"
       id="path3356-0-2"
       inkscape:connector-curvature="0"
       inkscape:export-xdpi="90"
       inkscape:export-ydpi="90" />
    <path
       style="fill:none;fill-rule:evenodd;stroke:#000000;stroke-width:0.59928972px;stroke-linecap:butt;stroke-linejoin:miter;stroke-opacity:1"
       d="m 154.05085,58.099026 2.99645,-2.996453"
       id="path3358-8-4"
       inkscape:connector-curvature="0"
       inkscape:export-xdpi="90"
       inkscape:export-ydpi="90" />
    <rect
       style="fill:none;fill-rule:evenodd;stroke:#000000;stroke-width:0.59928972px;stroke-linecap:butt;stroke-linejoin:miter;stroke-opacity:1"
       id="rect3342-8-8"
       width="23.971588"
       height="23.971588"
       x="178.02245"
       y="34.127464"
       rx="1.6633644e-017"
       inkscape:export-xdpi="90"
       inkscape:export-ydpi="90" />
    <rect
       style="fill:none;fill-rule:evenodd;stroke:#000000;stroke-width:0.59928972px;stroke-linecap:butt;stroke-linejoin:miter;stroke-opacity:1"
       id="rect3344-0-6"
       width="17.978691"
       height="17.978691"
       x="181.01889"
       y="37.123905"
       rx="1.6633644e-017"
       inkscape:export-xdpi="90"
       inkscape:export-ydpi="90" />
    <path
       style="fill:none;fill-rule:evenodd;stroke:#000000;stroke-width:0.59928972px;stroke-linecap:butt;stroke-linejoin:miter;stroke-opacity:1"
       d="m 178.02244,34.127437 2.99645,2.996453"
       id="path3352-1-8"
       inkscape:connector-curvature="0"
       inkscape:export-xdpi="90"
       inkscape:export-ydpi="90" />
    <path
       style="fill:none;fill-rule:evenodd;stroke:#000000;stroke-width:0.59928972px;stroke-linecap:butt;stroke-linejoin:miter;stroke-opacity:1"
       d="m 198.99758,37.12389 2.99644,-2.996453"
       id="path3354-4-3"
       inkscape:connector-curvature="0"
       inkscape:export-xdpi="90"
       inkscape:export-ydpi="90" />
    <path
       style="fill:none;fill-rule:evenodd;stroke:#000000;stroke-width:0.59928972px;stroke-linecap:butt;stroke-linejoin:miter;stroke-opacity:1"
       d="m 198.99758,55.102573 2.99644,2.996453"
       id="path3356-5-6"
       inkscape:connector-curvature="0"
       inkscape:export-xdpi="90"
       inkscape:export-ydpi="90" />
    <path
       style="fill:none;fill-rule:evenodd;stroke:#000000;stroke-width:0.59928972px;stroke-linecap:butt;stroke-linejoin:miter;stroke-opacity:1"
       d="m 178.02244,58.099026 2.99645,-2.996453"
       id="path3358-0-1"
       inkscape:connector-curvature="0"
       inkscape:export-xdpi="90"
       inkscape:export-ydpi="90" />
    <path
       style="fill:#ff0000"
       d="m 37.526638,46.082245 0,-8.5 8.625,0 8.625,0 0,8.5 0,8.5 -8.625,0 -8.625,0 0,-8.5 z"
       id="path5549"
       inkscape:connector-curvature="0" />
    <path
       style="fill:#ffff00"
       d="m 61.495178,46.090442 0,-8.662058 8.662058,0 8.662058,0 0,8.662058 0,8.662058 -8.662058,0 -8.662058,0 0,-8.662058 z"
       id="path5559"
       inkscape:connector-curvature="0" />
    <path
       style="fill:#00ff00"
       d="m 85.44842,46.090442 0,-8.662058 8.662058,0 8.662062,0 0,8.662058 0,8.662058 -8.662062,0 -8.662058,0 0,-8.662058 z"
       id="path5569"
       inkscape:connector-curvature="0" />
    <path
       style="fill:#00ffff"
       d="m 109.52364,46.105872 0,-8.625 8.625,0 8.625,0 0,8.625 0,8.625 -8.625,0 -8.625,0 0,-8.625 z"
       id="path5579"
       inkscape:connector-curvature="0" />
    <path
       style="fill:#000080"
       d="m 133.51915,46.097452 0,-8.57367 8.57367,0 8.57367,0 0,8.57367 0,8.573669 -8.57367,0 -8.57367,0 0,-8.573669 z"
       id="path5591"
       inkscape:connector-curvature="0" />
    <path
       style="fill:#800080"
       d="m 157.3599,46.090402 0,-8.662058 8.66206,0 8.66206,0 0,8.662058 0,8.662058 -8.66206,0 -8.66206,0 0,-8.662058 z"
       id="path5601"
       inkscape:connector-curvature="0" />
    <path
       style="fill:#ff00ff"
       d="m 181.33878,46.115052 0,-8.684156 8.66206,0 8.66206,0 0,8.684156 0,8.684155 -8.66206,0 -8.66206,0 0,-8.684155 z"
       id="path5611"
       inkscape:connector-curvature="0" />
    <rect
       style="fill:none;fill-rule:evenodd;stroke:#000000;stroke-width:0.59928972px;stroke-linecap:butt;stroke-linejoin:miter;stroke-opacity:1"
       id="rect3342-8-8-5"
       width="23.971588"
       height="23.971588"
       x="10.022453"
       y="34.127449"
       rx="1.6633644e-017"
       inkscape:export-xdpi="90"
       inkscape:export-ydpi="90" />
    <rect
       style="fill:none;fill-rule:evenodd;stroke:#000000;stroke-width:0.59928972px;stroke-linecap:butt;stroke-linejoin:miter;stroke-opacity:1"
       id="rect3344-0-6-1"
       width="17.978691"
       height="17.978691"
       x="13.01889"
       y="37.12389"
       rx="1.6633644e-017"
       inkscape:export-xdpi="90"
       inkscape:export-ydpi="90" />
    <path
       style="fill:none;fill-rule:evenodd;stroke:#000000;stroke-width:0.59928972px;stroke-linecap:butt;stroke-linejoin:miter;stroke-opacity:1"
       d="m 10.02244,34.127422 2.99645,2.996453"
       id="path3352-1-8-0"
       inkscape:connector-curvature="0"
       inkscape:export-xdpi="90"
       inkscape:export-ydpi="90" />
    <path
       style="fill:none;fill-rule:evenodd;stroke:#000000;stroke-width:0.59928972px;stroke-linecap:butt;stroke-linejoin:miter;stroke-opacity:1"
       d="m 30.99758,37.123875 2.99644,-2.996453"
       id="path3354-4-3-0"
       inkscape:connector-curvature="0"
       inkscape:export-xdpi="90"
       inkscape:export-ydpi="90" />
    <path
       style="fill:none;fill-rule:evenodd;stroke:#000000;stroke-width:0.59928972px;stroke-linecap:butt;stroke-linejoin:miter;stroke-opacity:1"
       d="m 30.99758,55.102559 2.99644,2.996453"
       id="path3356-5-6-7"
       inkscape:connector-curvature="0"
       inkscape:export-xdpi="90"
       inkscape:export-ydpi="90" />
    <path
       style="fill:none;fill-rule:evenodd;stroke:#000000;stroke-width:0.59928972px;stroke-linecap:butt;stroke-linejoin:miter;stroke-opacity:1"
       d="m 10.02244,58.099012 2.99645,-2.996453"
       id="path3358-0-1-1"
       inkscape:connector-curvature="0"
       inkscape:export-xdpi="90"
       inkscape:export-ydpi="90" />
    <path
       style="fill:#1a1a1a"
       d="m 13.31921,46.128419 0,-8.662058 8.66205,0 8.66206,0 0,8.662058 0,8.662058 -8.66206,0 -8.66205,0 0,-8.662058 z"
       id="path3422"
       inkscape:connector-curvature="0" />
    <path
       style="fill:#000000"
       d="m 11.96766,56.601899 1.19309,-1.193242 8.85004,0 8.85004,0 1.19309,1.193242 1.19309,1.193243 -11.23622,0 -11.23622,0 1.19309,-1.193243 z"
       id="path3424"
       inkscape:connector-curvature="0" />
    <path
       style="fill:#000000"
       d="m 32.48681,56.095842 -1.13999,-1.141243 0,-8.843766 0,-8.843767 1.15625,-1.154983 1.15625,-1.154983 0,11.139992 c 0,6.126995 -0.007,11.139991 -0.0163,11.139991 -0.009,0 -0.52925,-0.513558 -1.15625,-1.141241 z"
       id="path3426"
       inkscape:connector-curvature="0" />
    <path
       style="fill:#333333"
       d="m 11.95615,35.617793 -1.17052,-1.171146 11.22469,0 11.2247,0 -1.17052,1.171146 -1.17053,1.171145 -8.88365,0 -8.88365,0 -1.17052,-1.171145 z"
       id="path3428"
       inkscape:connector-curvature="0" />
    <path
       style="fill:#333333"
       d="m 10.32096,46.081071 0,-11.213965 1.19324,1.192628 1.19325,1.192629 0,8.861552 0,8.861551 -1.16041,1.159785 c -0.63822,0.637881 -1.17518,1.159784 -1.19324,1.159784 -0.0181,0 -0.0328,-5.046284 -0.0328,-11.213964 z"
       id="path3430"
       inkscape:connector-curvature="0" />
    <path
       style="fill:#aa0088"
       d="m 200.46939,56.099006 -1.13999,-1.141243 0,-8.843766 0,-8.843767 1.15625,-1.154983 1.15625,-1.154983 0,11.139992 c 0,6.126995 -0.007,11.139991 -0.0163,11.139991 -0.009,0 -0.52925,-0.513558 -1.15625,-1.141241 z"
       id="path3432"
       inkscape:connector-curvature="0" />
    <path
       style="fill:#aa0088"
       d="m 180.0169,56.583997 1.15499,-1.15625 8.84501,0 8.84502,0 1.15498,1.15625 1.15499,1.15625 -11.15499,0 -11.15498,0 1.15498,-1.15625 z"
       id="path3434"
       inkscape:connector-curvature="0" />
    <path
       style="fill:#ff55dd"
       d="m 178.3294,46.115247 0,-11.217516 1.1875,1.186266 1.1875,1.186266 0,8.844984 0,8.844984 -1.1875,1.186266 -1.1875,1.186267 0,-11.217517 z"
       id="path3436"
       inkscape:connector-curvature="0" />
    <path
       style="fill:#ff55dd"
       d="m 179.98565,35.615247 -1.18626,-1.1875 11.21751,0 11.21752,0 -1.18627,1.1875 -1.18626,1.1875 -8.84499,0 -8.84498,0 -1.18627,-1.1875 z"
       id="path3438"
       inkscape:connector-curvature="0" />
    <path
       style="fill:#672178"
       d="m 176.50677,56.134788 -1.17126,-1.172476 0,-8.843766 0,-8.843766 1.1875,-1.186266 1.1875,-1.186266 0,11.202508 c 0,6.161379 -0.007,11.202508 -0.0162,11.202508 -0.009,0 -0.54331,-0.527614 -1.1875,-1.172476 z"
       id="path3444"
       inkscape:connector-curvature="0" />
    <path
       style="fill:#672178"
       d="m 156.02301,56.588514 1.15498,-1.15625 8.84502,0 8.84502,0 1.15498,1.15625 1.15498,1.15625 -11.15498,0 -11.15498,0 1.15498,-1.15625 z"
       id="path3446"
       inkscape:connector-curvature="0" />
    <path
       style="fill:#bc5fd3"
       d="m 154.39801,46.119764 0,-11.154983 1.15625,1.154983 1.15625,1.154983 0,8.845017 0,8.845017 -1.15625,1.154983 -1.15625,1.154983 0,-11.154983 z"
       id="path3448"
       inkscape:connector-curvature="0" />
    <path
       style="fill:#bc5fd3"
       d="m 155.99176,35.619764 -1.18627,-1.1875 11.21752,0 11.21752,0 -1.18627,1.1875 -1.18627,1.1875 -8.84498,0 -8.84498,0 -1.18627,-1.1875 z"
       id="path3450"
       inkscape:connector-curvature="0" />
    <path
       style="fill:#5555ff"
       d="m 130.38947,46.112284 0,-11.186267 1.1875,1.186266 1.1875,1.186267 0,8.813734 0,8.813733 -1.1875,1.186267 -1.1875,1.186266 0,-11.186266 z"
       id="path3456"
       inkscape:connector-curvature="0" />
    <path
       style="fill:#5555ff"
       d="m 132.01447,35.612283 -1.15498,-1.15625 11.18623,0 11.18623,0 -1.15498,1.15625 -1.15498,1.15625 -8.87627,0 -8.87627,0 -1.15498,-1.15625 z"
       id="path3458"
       inkscape:connector-curvature="0" />
    <path
       style="fill:#000055"
       d="m 132.04174,56.597812 1.15498,-1.15625 8.87627,0 8.87626,0 1.15499,1.15625 1.15498,1.15625 -11.18623,0 -11.18624,0 1.15499,-1.15625 z"
       id="path3460"
       inkscape:connector-curvature="0" />
    <path
       style="fill:#000055"
       d="m 152.52549,56.081586 -1.17125,-1.172476 0,-8.812516 0,-8.812516 1.1875,-1.186266 1.1875,-1.186266 0,11.171258 c 0,6.144192 -0.007,11.171258 -0.0163,11.171258 -0.009,0 -0.5433,-0.527614 -1.1875,-1.172476 z"
       id="path3462"
       inkscape:connector-curvature="0" />
    <path
       style="fill:#2ca089"
       d="m 108.15595,56.575493 1.1465,-1.149049 8.79719,0 8.79719,0 1.1465,1.149049 1.1465,1.149048 -11.09019,0 -11.09019,0 1.1465,-1.149048 z"
       id="path3466"
       inkscape:connector-curvature="0" />
    <path
       style="fill:#2ca089"
       d="m 128.55033,56.110269 -1.16991,-1.17233 0,-8.794684 0,-8.794684 1.19324,-1.190787 1.19324,-1.190786 0,11.1578 c 0,6.136791 -0.0105,11.157802 -0.0233,11.157802 -0.0128,0 -0.54979,-0.527549 -1.19325,-1.172331 z"
       id="path3468"
       inkscape:connector-curvature="0" />
    <path
       style="fill:#87decd"
       d="m 106.43238,46.145668 0,-11.178576 1.14905,1.146498 1.14904,1.146498 0,8.88558 0,8.88558 -1.14904,1.146497 -1.14905,1.146498 0,-11.178575 z"
       id="path3470"
       inkscape:connector-curvature="0" />
    <path
       style="fill:#87decd"
       d="m 108.06756,35.627454 -1.1465,-1.149048 11.17858,0 11.17857,0 -1.14649,1.149048 -1.1465,1.149049 -8.88558,0 -8.88558,0 -1.1465,-1.149049 z"
       id="path3472"
       inkscape:connector-curvature="0" />
    <path
       style="fill:#008000"
       d="m 84.09521,56.591363 1.154982,-1.15625 8.876268,0 8.87627,0 1.15498,1.15625 1.15498,1.15625 -11.18623,0 -11.186233,0 1.154983,-1.15625 z"
       id="path3474"
       inkscape:connector-curvature="0" />
    <path
       style="fill:#008000"
       d="m 104.6102,56.106372 -1.13999,-1.141243 0,-8.875016 0,-8.875017 1.15625,-1.154983 1.15625,-1.154983 0,11.171242 c 0,6.144183 -0.007,11.171241 -0.0163,11.171241 -0.009,0 -0.52925,-0.513558 -1.15625,-1.141241 z"
       id="path3476"
       inkscape:connector-curvature="0" />
    <path
       style="fill:#55ff55"
       d="m 82.47021,46.091363 0,-11.186233 1.15625,1.154983 1.15625,1.154983 0,8.876267 0,8.876267 -1.15625,1.154983 -1.15625,1.154984 0,-11.186234 z"
       id="path3478"
       inkscape:connector-curvature="0" />
    <path
       style="fill:#55ff55"
       d="m 84.12646,35.622613 -1.186267,-1.1875 11.186267,0 11.18627,0 -1.18627,1.1875 -1.18627,1.1875 -8.81373,0 -8.813734,0 -1.186266,-1.1875 z"
       id="path3480"
       inkscape:connector-curvature="0" />
    <path
       style="fill:#aa8800"
       d="m 59.005941,57.754115 c 0,-0.02613 0.513559,-0.560505 1.141242,-1.1875 l 1.141243,-1.139992 8.843749,0 8.84375,0 1.186267,1.1875 1.186266,1.1875 -11.171258,0 c -6.144193,0 -11.171259,-0.02138 -11.171259,-0.04751 z"
       id="path3482"
       inkscape:connector-curvature="0" />
    <path
       style="fill:#aa8800"
       d="m 80.6147,56.129147 -1.171258,-1.172476 0,-8.843766 0,-8.843766 1.1875,-1.186266 1.1875,-1.186266 0,11.202508 c 0,6.16138 -0.0073,11.202508 -0.01624,11.202508 -0.0089,0 -0.543308,-0.527614 -1.1875,-1.172476 z"
       id="path3484"
       inkscape:connector-curvature="0" />
    <path
       style="fill:#ffdd55"
       d="m 58.505941,46.114123 0,-11.154983 1.15625,1.154983 1.15625,1.154983 0,8.845017 0,8.845017 -1.15625,1.154983 -1.15625,1.154983 0,-11.154983 z"
       id="path3486"
       inkscape:connector-curvature="0" />
    <path
       style="fill:#ffdd55"
       d="m 60.099691,35.614123 -1.186266,-1.1875 11.217516,0 11.217517,0 -1.186266,1.1875 -1.186267,1.1875 -8.844984,0 -8.844983,0 -1.186267,-1.1875 z"
       id="path3488"
       inkscape:connector-curvature="0" />
    <path
       style="fill:#aa0000"
       d="m 36.191946,56.600181 1.154983,-1.15625 8.845017,0 8.845017,0 1.154983,1.15625 1.154983,1.15625 -11.154983,0 -11.154983,0 1.154983,-1.15625 z"
       id="path3490"
       inkscape:connector-curvature="0" />
    <path
       style="fill:#aa0000"
       d="m 56.644438,56.115189 -1.139992,-1.141243 0,-8.843766 0,-8.843767 1.15625,-1.154982 1.15625,-1.154983 0,11.139991 c 0,6.126996 -0.0073,11.139992 -0.01626,11.139992 -0.0089,0 -0.529255,-0.513559 -1.15625,-1.141242 z"
       id="path3492"
       inkscape:connector-curvature="0" />
    <path
       style="fill:#ff5555"
       d="m 34.504446,46.100181 0,-11.186267 1.1875,1.186267 1.1875,1.186266 0,8.813734 0,8.813734 -1.1875,1.186266 -1.1875,1.186266 0,-11.186266 z"
       id="path3494"
       inkscape:connector-curvature="0" />
    <path
       style="fill:#ff5555"
       d="m 36.160696,35.631431 -1.186266,-1.1875 11.186266,0 11.186266,0 -1.186266,1.1875 -1.186266,1.1875 -8.813734,0 -8.813734,0 -1.186266,-1.1875 z"
       id="path3496"
       inkscape:connector-curvature="0" />
  </g>
</svg>
